# xmcd
# 
# Track frame offsets:
#     150
#     24219
#     47532
#     67016
#     90341
#     106945
#     126341
#     154416
#     176023
# 
# Disc length: 2667
# 
# Revision: 1
# Processed by: cddbd v1.5.2PL0 Copyright (c) Steve Scherf et al.
# Submitted via: fre:ac v1.0.17
# 
DISCID=6d0a6909
DTITLE=Oasis - Stop The Clocks [Disc 1]
DYEAR=2006
DGENRE=Indie Rock
TTITLE0=Rock 'n' Roll Star
TTITLE1=Some Might Say
TTITLE2=Talk Tonight
TTITLE3=Lyla
TTITLE4=The Importance Of Being Idle
TTITLE5=Wonderwall
TTITLE6=Slide Away
TTITLE7=Cigarettes and Alcohol
TTITLE8=The Masterplan
EXTD=
EXTT0=
EXTT1=
EXTT2=
EXTT3=
EXTT4=
EXTT5=
EXTT6=
EXTT7=
EXTT8=
PLAYORDER=
